<mxfile host="Electron" modified="2024-07-18T14:27:01.649Z" agent="Mozilla/5.0 (Macintosh; Intel Mac OS X 10_15_7) AppleWebKit/537.36 (KHTML, like Gecko) draw.io/24.5.1 Chrome/124.0.6367.207 Electron/30.0.6 Safari/537.36" etag="sajPwL2j7kOeDej_1hAg" version="24.5.1" type="device">
  <diagram name="Page-1" id="MlPOnJugsh0KBnJBEeCN">
    <mxGraphModel dx="714" dy="854" grid="1" gridSize="10" guides="1" tooltips="1" connect="1" arrows="1" fold="1" page="1" pageScale="1" pageWidth="850" pageHeight="1100" math="0" shadow="0">
      <root>
        <mxCell id="0" />
        <mxCell id="1" parent="0" />
        <mxCell id="tr4XKJ347pT7xKCmirGM-1" value="hutch_" style="ellipse;whiteSpace=wrap;html=1;aspect=fixed;fontFamily=Helvetica;fontSize=11;fontColor=default;labelBackgroundColor=default;" vertex="1" parent="1">
          <mxGeometry x="370" y="423.95" width="80" height="80" as="geometry" />
        </mxCell>
        <mxCell id="tr4XKJ347pT7xKCmirGM-2" style="edgeStyle=none;rounded=0;orthogonalLoop=1;jettySize=auto;html=1;exitX=0;exitY=0.5;exitDx=0;exitDy=0;entryX=1;entryY=0.5;entryDx=0;entryDy=0;strokeColor=default;align=center;verticalAlign=middle;fontFamily=Helvetica;fontSize=11;fontColor=default;labelBackgroundColor=default;endArrow=classic;" edge="1" parent="1" source="tr4XKJ347pT7xKCmirGM-4" target="tr4XKJ347pT7xKCmirGM-10">
          <mxGeometry relative="1" as="geometry" />
        </mxCell>
        <mxCell id="tr4XKJ347pT7xKCmirGM-3" value="rdfs:subClassOf" style="edgeLabel;html=1;align=center;verticalAlign=middle;resizable=0;points=[];fontFamily=Helvetica;fontSize=11;fontColor=default;labelBackgroundColor=default;" vertex="1" connectable="0" parent="tr4XKJ347pT7xKCmirGM-2">
          <mxGeometry x="0.136" y="1" relative="1" as="geometry">
            <mxPoint x="12" y="-1" as="offset" />
          </mxGeometry>
        </mxCell>
        <mxCell id="tr4XKJ347pT7xKCmirGM-4" value="pmd:ValueObject" style="ellipse;whiteSpace=wrap;html=1;aspect=fixed;fontFamily=Helvetica;fontSize=11;fontColor=default;labelBackgroundColor=default;" vertex="1" parent="1">
          <mxGeometry x="560" y="693.95" width="80" height="80" as="geometry" />
        </mxCell>
        <mxCell id="tr4XKJ347pT7xKCmirGM-5" value="" style="edgeStyle=none;rounded=0;orthogonalLoop=1;jettySize=auto;html=1;strokeColor=default;align=center;verticalAlign=middle;fontFamily=Helvetica;fontSize=11;fontColor=default;labelBackgroundColor=default;endArrow=classic;" edge="1" parent="1" source="tr4XKJ347pT7xKCmirGM-7" target="tr4XKJ347pT7xKCmirGM-1">
          <mxGeometry relative="1" as="geometry" />
        </mxCell>
        <mxCell id="tr4XKJ347pT7xKCmirGM-6" value="rdf:type" style="edgeLabel;html=1;align=center;verticalAlign=middle;resizable=0;points=[];fontFamily=Helvetica;fontSize=11;fontColor=default;labelBackgroundColor=default;" vertex="1" connectable="0" parent="tr4XKJ347pT7xKCmirGM-5">
          <mxGeometry x="0.0667" y="-1" relative="1" as="geometry">
            <mxPoint as="offset" />
          </mxGeometry>
        </mxCell>
        <mxCell id="tr4XKJ347pT7xKCmirGM-7" value="pmdao:hutch" style="ellipse;whiteSpace=wrap;html=1;aspect=fixed;fontFamily=Helvetica;fontSize=11;fontColor=default;labelBackgroundColor=default;" vertex="1" parent="1">
          <mxGeometry x="370" y="563.95" width="80" height="80" as="geometry" />
        </mxCell>
        <mxCell id="tr4XKJ347pT7xKCmirGM-8" value="" style="edgeStyle=none;rounded=0;orthogonalLoop=1;jettySize=auto;html=1;strokeColor=default;align=center;verticalAlign=middle;fontFamily=Helvetica;fontSize=11;fontColor=default;labelBackgroundColor=default;endArrow=classic;" edge="1" parent="1" source="tr4XKJ347pT7xKCmirGM-10" target="tr4XKJ347pT7xKCmirGM-7">
          <mxGeometry relative="1" as="geometry" />
        </mxCell>
        <mxCell id="tr4XKJ347pT7xKCmirGM-9" value="rdf:type" style="edgeLabel;html=1;align=center;verticalAlign=middle;resizable=0;points=[];fontFamily=Helvetica;fontSize=11;fontColor=default;labelBackgroundColor=default;" vertex="1" connectable="0" parent="tr4XKJ347pT7xKCmirGM-8">
          <mxGeometry x="-0.12" y="2" relative="1" as="geometry">
            <mxPoint as="offset" />
          </mxGeometry>
        </mxCell>
        <mxCell id="tr4XKJ347pT7xKCmirGM-10" value="pmd:Location" style="ellipse;whiteSpace=wrap;html=1;aspect=fixed;fontFamily=Helvetica;fontSize=11;fontColor=default;labelBackgroundColor=default;" vertex="1" parent="1">
          <mxGeometry x="370" y="693.95" width="80" height="80" as="geometry" />
        </mxCell>
      </root>
    </mxGraphModel>
  </diagram>
</mxfile>
